<svg width="50" height="37" viewBox="0 0 50 37" fill="none" xmlns="http://www.w3.org/2000/svg">
<path d="M41.7061 6C45.243 6 48.7798 10.0817 49.2852 11.6123C49.7904 13.1429 50.2963 16.204 49.791 23.3467C49.3868 29.061 43.5586 30.8299 40.6953 31H30.085L22 18.5L29.0742 7.53027L30.085 6H41.7061ZM33.5 9.5V26.5H40.2432L40.2607 26.499C41.1075 26.4389 42.3685 26.1022 43.457 25.2812C44.5631 24.447 45.4799 23.1188 45.5977 21.1318L45.6426 20.3008C45.8103 16.8276 45.6431 14.9813 45.417 13.9043L45.3096 13.459C45.2226 13.1441 45.0233 12.7481 44.7666 12.3477C44.5047 11.9391 44.1634 11.4944 43.7676 11.082C42.9994 10.2817 41.927 9.50016 40.7676 9.5H33.5Z" fill="#9D36D0"/>
<path d="M27 6L18.4634 18.3984L27 31H20.5L15.2515 23.0633L6 36.5H0L12.312 18.6182L0 0H6L15.4878 14.0058L21 6H27Z" fill="#9D36D0"/>
</svg>
