<svg width="17" height="15" viewBox="0 0 17 15" fill="none" xmlns="http://www.w3.org/2000/svg">
<path d="M5.76097 0.0128602C4.4375 0.105438 3.22849 0.59997 2.28316 1.43552C1.01627 2.55466 0.410487 4.12145 0.630423 5.71286C0.831066 7.17067 1.72238 8.47848 3.07287 9.29763C3.3211 9.4488 3.42271 9.5027 3.67737 9.61872C4.25872 9.88473 4.84264 10.0429 5.53589 10.1215C5.80213 10.1508 6.51724 10.1508 6.78348 10.1215C7.30309 10.0629 7.75068 9.95973 8.21756 9.79216C8.54039 9.67731 8.98926 9.46052 9.27094 9.28473L9.37383 9.22145L10.7565 10.4789C15.6889 14.9636 15.6053 14.8875 15.6799 14.9261C15.923 15.0492 16.2086 15.014 16.4041 14.8359C16.5944 14.6625 16.6356 14.4152 16.5121 14.1879C16.4851 14.1375 15.9179 13.616 13.3841 11.3062C10.5391 8.71286 10.2922 8.48434 10.3076 8.46442C10.3179 8.4527 10.359 8.40934 10.3976 8.36716C11.316 7.38747 11.797 6.10895 11.7237 4.83864C11.6825 4.1238 11.5115 3.50739 11.1835 2.88864C10.9661 2.47966 10.7462 2.16794 10.4221 1.81052C10.2857 1.66052 9.91402 1.32184 9.74811 1.19645C8.86451 0.529657 7.86643 0.141766 6.74361 0.0292665C6.51981 0.00700086 5.97447 -0.00237414 5.76097 0.0128602ZM6.76418 1.12497C7.76354 1.26325 8.63299 1.66755 9.31338 2.31325C9.97705 2.94138 10.3796 3.71247 10.5095 4.59958C10.5404 4.81755 10.5404 5.3238 10.5095 5.5488C10.4401 6.0363 10.3063 6.43708 10.0696 6.86716C9.68766 7.56208 9.06772 8.15739 8.32045 8.54528C7.08058 9.18864 5.55132 9.23669 4.26643 8.67184C3.01242 8.12106 2.12238 7.07341 1.85743 5.83591C1.80984 5.61091 1.79184 5.45739 1.78412 5.18552C1.7764 4.88317 1.78926 4.68981 1.83814 4.42263C2.04521 3.28474 2.79248 2.27692 3.88058 1.67106C4.46322 1.34528 5.08316 1.16247 5.82528 1.09684C5.85357 1.0945 6.03621 1.09333 6.23042 1.09567C6.50952 1.09919 6.62142 1.10505 6.76418 1.12497Z" fill="#7F7979"/>
</svg>
