<?xml version="1.0" standalone="no"?>
<!DOCTYPE svg PUBLIC "-//W3C//DTD SVG 20010904//EN"
 "http://www.w3.org/TR/2001/REC-SVG-20010904/DTD/svg10.dtd">
<svg version="1.0" xmlns="http://www.w3.org/2000/svg"
 width="500.000000pt" height="500.000000pt" viewBox="0 0 500.000000 500.000000"
 preserveAspectRatio="xMidYMid meet">
<metadata>
Created by potrace 1.16, written by Peter Selinger 2001-2019
</metadata>
<g transform="translate(0.000000,500.000000) scale(0.100000,-0.100000)"
fill="#000000" stroke="none">
<path d="M2305 4269 c-186 -28 -353 -68 -417 -100 -10 -5 -23 -9 -29 -9 -14 0
-269 -127 -289 -144 -8 -7 -22 -15 -30 -18 -41 -15 -197 -144 -300 -247 -100
-100 -240 -274 -240 -297 0 -4 -6 -15 -14 -23 -16 -19 -91 -163 -123 -236 -92
-215 -140 -453 -141 -700 0 -304 88 -630 238 -880 16 -27 33 -57 37 -65 25
-53 144 -201 238 -295 93 -95 289 -255 310 -255 4 0 19 -9 34 -19 37 -27 216
-116 271 -136 240 -85 354 -109 594 -121 166 -9 386 18 541 67 177 55 267 94
440 191 141 80 372 286 474 424 25 32 57 76 73 96 15 20 28 39 28 43 0 3 11
22 23 43 59 93 132 252 166 362 6 19 17 55 25 80 36 118 66 327 66 464 0 215
-38 412 -125 654 -41 116 -159 322 -254 447 -97 128 -358 364 -451 408 -8 4
-37 21 -65 37 -253 152 -591 242 -897 239 -68 -1 -150 -6 -183 -10z m-767
-958 c9 -5 51 -23 92 -39 262 -104 243 -93 262 -148 9 -27 28 -87 42 -134 l25
-86 683 4 c667 3 684 3 714 -17 19 -12 37 -34 44 -56 11 -33 8 -49 -40 -198
-28 -89 -55 -173 -60 -187 -5 -14 -28 -86 -50 -160 -29 -91 -50 -144 -68 -162
l-26 -28 -499 -2 c-483 -3 -500 -4 -511 -22 -6 -11 -26 -44 -43 -72 -18 -29
-33 -58 -33 -64 0 -7 162 -10 513 -10 540 0 537 0 537 -45 0 -30 -19 -45 -57
-45 -32 0 -46 -21 -23 -35 14 -9 12 -121 -2 -148 -76 -135 -232 -158 -331 -48
-49 54 -58 114 -31 209 6 22 6 22 -114 22 l-120 0 15 -42 c55 -161 -115 -311
-273 -239 -89 41 -141 167 -99 241 20 35 19 40 -11 40 -63 0 -115 66 -99 127
3 14 18 45 33 67 80 122 78 114 53 192 -11 37 -21 73 -21 81 0 7 -4 21 -9 31
-8 16 -50 150 -73 232 -5 19 -13 49 -18 65 -11 37 -39 130 -50 170 -5 17 -16
53 -24 80 -8 28 -24 84 -36 125 -12 41 -26 80 -31 86 -5 6 -31 19 -57 29 -79
28 -246 98 -259 108 -19 14 -16 58 5 73 21 16 27 17 50 5z"/>
<path d="M1995 2788 c11 -38 23 -81 39 -133 32 -111 25 -105 121 -105 l86 0
-7 53 c-3 28 -12 84 -20 124 -8 40 -14 75 -14 78 0 3 -48 5 -106 5 -106 0
-106 0 -99 -22z"/>
<path d="M2300 2788 c0 -13 5 -41 9 -63 5 -22 12 -62 16 -90 11 -90 3 -85 126
-85 l109 0 0 130 0 130 -130 0 c-128 0 -130 0 -130 -22z"/>
<path d="M2660 2680 l0 -130 110 0 110 0 0 33 c0 17 4 48 9 67 5 19 12 63 15
98 l6 62 -125 0 -125 0 0 -130z"/>
<path d="M3006 2794 c-3 -9 -6 -30 -6 -47 0 -18 -4 -48 -9 -67 -5 -19 -11 -57
-14 -83 l-5 -48 131 3 131 3 37 115 c21 63 38 121 38 128 1 9 -35 12 -148 12
-127 0 -150 -2 -155 -16z"/>
<path d="M2100 2444 c0 -13 63 -220 72 -237 6 -12 20 -17 46 -16 64 3 84 10
77 28 -3 8 -10 49 -16 91 -5 41 -11 84 -13 95 -3 11 -5 26 -5 33 -1 8 -24 12
-81 12 -44 0 -80 -3 -80 -6z"/>
<path d="M2361 2403 c5 -27 13 -81 19 -121 5 -40 12 -78 15 -83 7 -10 124 -13
149 -3 13 5 16 26 16 130 l0 124 -103 0 -104 0 8 -47z"/>
<path d="M2662 2323 l3 -128 69 -3 c38 -2 73 1 78 6 5 5 11 27 13 48 2 22 10
76 18 122 l14 82 -99 0 -99 0 3 -127z"/>
<path d="M2940 2373 c-7 -43 -14 -100 -14 -128 l-1 -50 88 -2 c75 -1 91 1 108
18 10 10 19 26 19 35 0 9 14 56 30 106 17 49 30 91 30 94 0 2 -55 4 -123 4
l-123 0 -14 -77z"/>
<path d="M2225 1828 c-36 -19 -55 -52 -55 -94 0 -95 110 -138 175 -68 30 32
35 63 18 106 -22 56 -89 83 -138 56z"/>
<path d="M2791 1814 c-59 -49 -47 -137 24 -171 30 -14 40 -15 74 -3 77 25 92
125 26 175 -42 32 -85 32 -124 -1z"/>
</g>
</svg>
