<svg width="19" height="23" viewBox="0 0 19 23" fill="none" xmlns="http://www.w3.org/2000/svg">
<path d="M17.375 5.875H14V4.75C14 3.55653 13.5259 2.41193 12.682 1.56802C11.8381 0.724106 10.6935 0.25 9.5 0.25C8.30653 0.25 7.16193 0.724106 6.31802 1.56802C5.47411 2.41193 5 3.55653 5 4.75V5.875H1.625C1.32663 5.875 1.04048 5.99353 0.829505 6.20451C0.618526 6.41548 0.5 6.70163 0.5 7V19.375C0.5 20.2701 0.855579 21.1286 1.48851 21.7615C2.12145 22.3944 2.97989 22.75 3.875 22.75H15.125C16.0201 22.75 16.8786 22.3944 17.5115 21.7615C18.1444 21.1286 18.5 20.2701 18.5 19.375V7C18.5 6.70163 18.3815 6.41548 18.1705 6.20451C17.9595 5.99353 17.6734 5.875 17.375 5.875ZM7.25 4.75C7.25 4.15326 7.48705 3.58097 7.90901 3.15901C8.33097 2.73705 8.90326 2.5 9.5 2.5C10.0967 2.5 10.669 2.73705 11.091 3.15901C11.5129 3.58097 11.75 4.15326 11.75 4.75V5.875H7.25V4.75ZM16.25 19.375C16.25 19.6734 16.1315 19.9595 15.9205 20.1705C15.7095 20.3815 15.4234 20.5 15.125 20.5H3.875C3.57663 20.5 3.29048 20.3815 3.0795 20.1705C2.86853 19.9595 2.75 19.6734 2.75 19.375V8.125H5V9.25C5 9.54837 5.11853 9.83452 5.3295 10.0455C5.54048 10.2565 5.82663 10.375 6.125 10.375C6.42337 10.375 6.70952 10.2565 6.9205 10.0455C7.13147 9.83452 7.25 9.54837 7.25 9.25V8.125H11.75V9.25C11.75 9.54837 11.8685 9.83452 12.0795 10.0455C12.2905 10.2565 12.5766 10.375 12.875 10.375C13.1734 10.375 13.4595 10.2565 13.6705 10.0455C13.8815 9.83452 14 9.54837 14 9.25V8.125H16.25V19.375Z" fill="#EFDDDD"/>
</svg>
