<svg width="800" height="600" viewBox="0 0 800 600" fill="none" xmlns="http://www.w3.org/2000/svg">
<path d="M698.409 100.92C697.742 98.9539 697.043 95.8233 696.211 92.293C690.714 69.9419 685.551 48.8243 665.133 41.0299L568.203 4.15637C549.416 -2.97132 528.364 -0.407535 511.776 11.1513L505.78 16.5147C500.917 22.0779 494.321 29.0385 489.625 33.5025H311.022C307.057 29.3383 301.761 23.2099 297.332 17.7138L290.404 11.2185C273.816 -0.373186 252.698 -3.03846 234.011 4.15637L136.98 41.0299C116.661 48.7571 111.565 69.6421 106.135 91.7934C105.302 95.1581 104.603 98.2216 104.868 98.2216C104.868 98.2216 104.901 98.2216 104.936 98.1888C71.8936 163.342 -85.2606 493.171 61.8665 590.535C82.9185 604.458 110.931 602.259 130.085 585.139L245.402 481.746C255.562 472.62 268.485 467.589 281.743 467.589H520.404C533.662 467.589 546.552 472.618 556.745 481.746L672.062 585.139C682.922 594.865 696.445 599.828 709.968 599.828C720.827 599.828 731.652 596.598 741.013 590.002C870.852 498.901 753.869 216.17 698.409 100.92ZM533.162 133.429C551.549 133.429 566.471 148.351 566.471 166.738C566.471 185.125 551.549 200.047 533.162 200.047C514.775 200.047 499.853 185.125 499.853 166.738C499.853 148.351 514.775 133.429 533.162 133.429ZM333.306 299.977H299.997V333.285C299.997 351.672 285.108 366.594 266.688 366.594C248.268 366.594 233.379 351.672 233.379 333.285V299.977H200.07C181.651 299.977 166.761 285.054 166.761 266.668C166.761 248.281 181.651 233.359 200.07 233.359H233.379V200.05C233.379 181.663 248.268 166.741 266.688 166.741C285.108 166.741 299.997 181.663 299.997 200.05V233.359H333.306C351.725 233.359 366.615 248.281 366.615 266.668C366.615 285.054 351.725 299.977 333.306 299.977ZM466.543 266.668C448.156 266.668 433.234 251.746 433.234 233.359C433.234 214.972 448.156 200.05 466.543 200.05C484.93 200.05 499.852 214.972 499.852 233.359C499.852 251.746 484.93 266.668 466.543 266.668ZM533.162 333.285C514.775 333.285 499.853 318.363 499.853 299.977C499.853 281.59 514.775 266.668 533.162 266.668C551.549 266.668 566.471 281.59 566.471 299.977C566.471 318.363 551.549 333.285 533.162 333.285ZM599.78 266.668C581.393 266.668 566.471 251.746 566.471 233.359C566.471 214.972 581.393 200.05 599.78 200.05C618.167 200.05 633.089 214.972 633.089 233.359C633.089 251.746 618.167 266.668 599.78 266.668Z" fill="#EFDDDD"/>
</svg>
