<svg width="496" height="529" viewBox="0 0 496 529" fill="none" xmlns="http://www.w3.org/2000/svg">
<path d="M224 211.968C224 225.222 234.746 235.968 248 235.968C261.254 235.968 272 225.222 272 211.968H224ZM272 24C272 10.7453 261.254 0 248 0C234.746 0 224 10.7453 224 24H272ZM161.946 109.17C174.01 103.677 179.334 89.4448 173.843 77.3818C168.349 65.3187 154.117 59.993 142.054 65.4861L161.946 109.17ZM24 285.12L-0.00317383 284.995L0.00163269 285.398L24 285.12ZM248 504L248.275 480C248.093 480 247.907 480 247.725 480L248 504ZM472 285.12L496.003 285.398L496 284.995L472 285.12ZM353.946 65.4861C341.882 59.993 327.651 65.3187 322.157 77.3818C316.666 89.4448 321.99 103.677 334.054 109.17L353.946 65.4861ZM272 211.968V24H224V211.968H272ZM142.054 65.4861C55.9498 104.695 0.492506 190.384 -0.00317383 284.995L47.9997 285.245C48.3975 209.356 92.8787 140.621 161.946 109.17L142.054 65.4861ZM0.00163269 285.398C1.57923 420.947 112.729 529.555 248.275 528L247.725 480C138.683 481.254 49.2675 393.882 47.9984 284.842L0.00163269 285.398ZM247.725 528C383.27 529.555 494.429 420.947 496.003 285.398L448.003 284.842C446.733 393.882 357.318 481.254 248.275 480L247.725 528ZM496 284.995C495.504 190.384 440.051 104.695 353.946 65.4861L334.054 109.17C403.12 140.621 447.603 209.356 448 285.245L496 284.995Z" fill="#EFDDDD"/>
</svg>
