<svg width="111" height="37" viewBox="0 0 111 37" fill="none" xmlns="http://www.w3.org/2000/svg">
<path d="M5.544 23.68C4.872 23.68 4.236 23.596 3.636 23.428C3.036 23.26 2.502 23.008 2.034 22.672C1.566 22.324 1.194 21.898 0.918 21.394C0.654 20.89 0.51 20.302 0.486 19.63C0.486 19.522 0.522 19.432 0.594 19.36C0.666 19.276 0.762 19.234 0.882 19.234H2.934C3.09 19.234 3.21 19.276 3.294 19.36C3.39 19.444 3.462 19.564 3.51 19.72C3.57 20.104 3.696 20.416 3.888 20.656C4.08 20.896 4.32 21.076 4.608 21.196C4.908 21.304 5.244 21.358 5.616 21.358C6.3 21.358 6.822 21.136 7.182 20.692C7.554 20.248 7.74 19.618 7.74 18.802V13.294H1.746C1.626 13.294 1.524 13.252 1.44 13.168C1.356 13.084 1.314 12.982 1.314 12.862V11.35C1.314 11.218 1.356 11.11 1.44 11.026C1.524 10.942 1.626 10.9 1.746 10.9H10.224C10.356 10.9 10.464 10.942 10.548 11.026C10.632 11.11 10.674 11.218 10.674 11.35V18.874C10.674 19.906 10.458 20.782 10.026 21.502C9.594 22.21 8.994 22.75 8.226 23.122C7.458 23.494 6.564 23.68 5.544 23.68ZM15.8972 23.68C15.2012 23.68 14.5832 23.524 14.0432 23.212C13.5152 22.888 13.1012 22.426 12.8012 21.826C12.5132 21.214 12.3692 20.476 12.3692 19.612V14.59C12.3692 14.458 12.4112 14.35 12.4952 14.266C12.5792 14.182 12.6812 14.14 12.8012 14.14H14.7092C14.8412 14.14 14.9492 14.182 15.0332 14.266C15.1172 14.35 15.1592 14.458 15.1592 14.59V19.504C15.1592 20.848 15.7472 21.52 16.9232 21.52C17.4872 21.52 17.9312 21.346 18.2552 20.998C18.5912 20.638 18.7592 20.14 18.7592 19.504V14.59C18.7592 14.458 18.8012 14.35 18.8852 14.266C18.9692 14.182 19.0772 14.14 19.2092 14.14H21.1172C21.2372 14.14 21.3392 14.182 21.4232 14.266C21.5072 14.35 21.5492 14.458 21.5492 14.59V23.05C21.5492 23.182 21.5072 23.29 21.4232 23.374C21.3392 23.458 21.2372 23.5 21.1172 23.5H19.3532C19.2212 23.5 19.1132 23.458 19.0292 23.374C18.9452 23.29 18.9032 23.182 18.9032 23.05V22.348C18.5912 22.78 18.1892 23.11 17.6972 23.338C17.2052 23.566 16.6052 23.68 15.8972 23.68ZM27.4507 23.68C26.0707 23.68 24.9727 23.296 24.1567 22.528C23.3527 21.76 22.9267 20.644 22.8787 19.18C22.8787 19.084 22.8787 18.958 22.8787 18.802C22.8787 18.634 22.8787 18.502 22.8787 18.406C22.9267 17.482 23.1367 16.69 23.5087 16.03C23.8807 15.358 24.4027 14.848 25.0747 14.5C25.7467 14.14 26.5327 13.96 27.4327 13.96C28.4407 13.96 29.2807 14.17 29.9527 14.59C30.6367 14.998 31.1467 15.562 31.4827 16.282C31.8307 16.99 32.0047 17.806 32.0047 18.73V19.144C32.0047 19.264 31.9567 19.366 31.8607 19.45C31.7767 19.534 31.6747 19.576 31.5547 19.576H25.6687C25.6687 19.588 25.6687 19.612 25.6687 19.648C25.6687 19.672 25.6687 19.696 25.6687 19.72C25.6807 20.104 25.7527 20.458 25.8847 20.782C26.0287 21.094 26.2267 21.346 26.4787 21.538C26.7427 21.73 27.0547 21.826 27.4147 21.826C27.7147 21.826 27.9607 21.784 28.1527 21.7C28.3447 21.616 28.5007 21.514 28.6207 21.394C28.7527 21.274 28.8487 21.172 28.9087 21.088C29.0167 20.968 29.1007 20.896 29.1607 20.872C29.2327 20.836 29.3407 20.818 29.4847 20.818H31.3567C31.4767 20.818 31.5727 20.854 31.6447 20.926C31.7287 20.986 31.7647 21.076 31.7527 21.196C31.7407 21.388 31.6387 21.628 31.4467 21.916C31.2667 22.192 30.9967 22.468 30.6367 22.744C30.2767 23.008 29.8267 23.23 29.2867 23.41C28.7587 23.59 28.1467 23.68 27.4507 23.68ZM25.6687 17.938H29.1967V17.902C29.1967 17.47 29.1247 17.098 28.9807 16.786C28.8487 16.462 28.6507 16.21 28.3867 16.03C28.1227 15.85 27.8047 15.76 27.4327 15.76C27.0607 15.76 26.7427 15.85 26.4787 16.03C26.2147 16.21 26.0107 16.462 25.8667 16.786C25.7347 17.098 25.6687 17.47 25.6687 17.902V17.938ZM37.656 27.46C36.768 27.46 36.03 27.34 35.442 27.1C34.854 26.872 34.386 26.59 34.038 26.254C33.702 25.93 33.462 25.606 33.318 25.282C33.174 24.958 33.096 24.706 33.084 24.526C33.072 24.394 33.114 24.286 33.21 24.202C33.306 24.118 33.414 24.076 33.534 24.076H35.46C35.568 24.076 35.658 24.1 35.73 24.148C35.814 24.208 35.88 24.304 35.928 24.436C35.988 24.58 36.072 24.73 36.18 24.886C36.288 25.054 36.45 25.192 36.666 25.3C36.894 25.408 37.194 25.462 37.566 25.462C37.986 25.462 38.334 25.402 38.61 25.282C38.886 25.162 39.09 24.958 39.222 24.67C39.366 24.382 39.438 23.992 39.438 23.5V22.294C39.15 22.606 38.784 22.864 38.34 23.068C37.908 23.272 37.374 23.374 36.738 23.374C36.114 23.374 35.562 23.278 35.082 23.086C34.614 22.882 34.224 22.6 33.912 22.24C33.6 21.868 33.36 21.424 33.192 20.908C33.024 20.392 32.928 19.81 32.904 19.162C32.892 18.838 32.892 18.52 32.904 18.208C32.928 17.584 33.024 17.014 33.192 16.498C33.36 15.982 33.6 15.538 33.912 15.166C34.224 14.782 34.614 14.488 35.082 14.284C35.562 14.068 36.114 13.96 36.738 13.96C37.398 13.96 37.962 14.086 38.43 14.338C38.898 14.59 39.282 14.902 39.582 15.274V14.59C39.582 14.47 39.624 14.368 39.708 14.284C39.792 14.188 39.894 14.14 40.014 14.14H41.778C41.898 14.14 42 14.188 42.084 14.284C42.18 14.368 42.228 14.47 42.228 14.59L42.246 23.248C42.246 24.148 42.072 24.91 41.724 25.534C41.376 26.158 40.86 26.632 40.176 26.956C39.504 27.292 38.664 27.46 37.656 27.46ZM37.566 21.268C37.998 21.268 38.346 21.172 38.61 20.98C38.886 20.776 39.09 20.524 39.222 20.224C39.354 19.912 39.426 19.588 39.438 19.252C39.45 19.12 39.456 18.934 39.456 18.694C39.456 18.442 39.45 18.25 39.438 18.118C39.426 17.782 39.354 17.464 39.222 17.164C39.09 16.852 38.886 16.6 38.61 16.408C38.346 16.216 37.998 16.12 37.566 16.12C37.11 16.12 36.75 16.222 36.486 16.426C36.222 16.618 36.03 16.876 35.91 17.2C35.79 17.524 35.718 17.878 35.694 18.262C35.682 18.55 35.682 18.832 35.694 19.108C35.718 19.504 35.79 19.864 35.91 20.188C36.03 20.512 36.222 20.776 36.486 20.98C36.75 21.172 37.11 21.268 37.566 21.268ZM48.258 23.68C47.262 23.68 46.428 23.518 45.756 23.194C45.084 22.858 44.568 22.384 44.208 21.772C43.86 21.16 43.668 20.446 43.632 19.63C43.62 19.39 43.614 19.12 43.614 18.82C43.614 18.508 43.62 18.238 43.632 18.01C43.668 17.182 43.872 16.468 44.244 15.868C44.616 15.256 45.138 14.788 45.81 14.464C46.482 14.128 47.298 13.96 48.258 13.96C49.206 13.96 50.016 14.128 50.688 14.464C51.36 14.788 51.882 15.256 52.254 15.868C52.626 16.468 52.83 17.182 52.866 18.01C52.89 18.238 52.902 18.508 52.902 18.82C52.902 19.12 52.89 19.39 52.866 19.63C52.83 20.446 52.632 21.16 52.272 21.772C51.924 22.384 51.414 22.858 50.742 23.194C50.07 23.518 49.242 23.68 48.258 23.68ZM48.258 21.7C48.846 21.7 49.29 21.52 49.59 21.16C49.89 20.788 50.052 20.248 50.076 19.54C50.088 19.36 50.094 19.12 50.094 18.82C50.094 18.52 50.088 18.28 50.076 18.1C50.052 17.404 49.89 16.87 49.59 16.498C49.29 16.126 48.846 15.94 48.258 15.94C47.67 15.94 47.22 16.126 46.908 16.498C46.608 16.87 46.446 17.404 46.422 18.1C46.41 18.28 46.404 18.52 46.404 18.82C46.404 19.12 46.41 19.36 46.422 19.54C46.446 20.248 46.608 20.788 46.908 21.16C47.22 21.52 47.67 21.7 48.258 21.7ZM57.9345 23.68C57.1905 23.68 56.5485 23.596 56.0085 23.428C55.4805 23.248 55.0485 23.032 54.7125 22.78C54.3885 22.528 54.1425 22.276 53.9745 22.024C53.8185 21.76 53.7345 21.538 53.7225 21.358C53.7105 21.226 53.7525 21.118 53.8485 21.034C53.9445 20.95 54.0405 20.908 54.1365 20.908H55.8825C55.9185 20.908 55.9545 20.914 55.9905 20.926C56.0265 20.938 56.0625 20.968 56.0985 21.016C56.2545 21.124 56.4165 21.25 56.5845 21.394C56.7525 21.526 56.9445 21.64 57.1605 21.736C57.3885 21.832 57.6705 21.88 58.0065 21.88C58.4025 21.88 58.7385 21.802 59.0145 21.646C59.2905 21.478 59.4285 21.244 59.4285 20.944C59.4285 20.728 59.3625 20.548 59.2305 20.404C59.1105 20.26 58.8765 20.128 58.5285 20.008C58.1805 19.888 57.6645 19.756 56.9805 19.612C56.3325 19.468 55.7805 19.276 55.3245 19.036C54.8685 18.796 54.5265 18.496 54.2985 18.136C54.0705 17.764 53.9565 17.32 53.9565 16.804C53.9565 16.336 54.1005 15.886 54.3885 15.454C54.6885 15.022 55.1265 14.668 55.7025 14.392C56.2785 14.104 56.9985 13.96 57.8625 13.96C58.5225 13.96 59.0985 14.044 59.5905 14.212C60.0945 14.368 60.5145 14.572 60.8505 14.824C61.1865 15.064 61.4385 15.316 61.6065 15.58C61.7865 15.832 61.8825 16.054 61.8945 16.246C61.9065 16.366 61.8705 16.468 61.7865 16.552C61.7025 16.636 61.6065 16.678 61.4985 16.678H59.8965C59.8365 16.678 59.7825 16.672 59.7345 16.66C59.6865 16.636 59.6445 16.606 59.6085 16.57C59.4645 16.474 59.3145 16.366 59.1585 16.246C59.0145 16.114 58.8405 16 58.6365 15.904C58.4325 15.808 58.1685 15.76 57.8445 15.76C57.4485 15.76 57.1425 15.85 56.9265 16.03C56.7225 16.198 56.6205 16.414 56.6205 16.678C56.6205 16.846 56.6745 17.002 56.7825 17.146C56.8905 17.29 57.1125 17.422 57.4485 17.542C57.7845 17.662 58.2945 17.788 58.9785 17.92C59.7945 18.064 60.4425 18.28 60.9225 18.568C61.4025 18.856 61.7445 19.192 61.9485 19.576C62.1645 19.948 62.2725 20.35 62.2725 20.782C62.2725 21.346 62.1045 21.85 61.7685 22.294C61.4325 22.726 60.9405 23.068 60.2925 23.32C59.6565 23.56 58.8705 23.68 57.9345 23.68Z" fill="white"/>
<path d="M102.706 6C106.243 6 109.78 10.0817 110.285 11.6123C110.79 13.1429 111.296 16.204 110.791 23.3467C110.387 29.061 104.559 30.8299 101.695 31H91.085L83 18.5L90.0742 7.53027L91.085 6H102.706ZM94.5 9.5V26.5H101.243L101.261 26.499C102.108 26.4389 103.369 26.1022 104.457 25.2812C105.563 24.447 106.48 23.1188 106.598 21.1318L106.643 20.3008C106.81 16.8276 106.643 14.9813 106.417 13.9043L106.31 13.459C106.223 13.1441 106.023 12.7481 105.767 12.3477C105.505 11.9391 105.163 11.4944 104.768 11.082C103.999 10.2817 102.927 9.50016 101.768 9.5H94.5Z" fill="#9D36D0"/>
<path d="M88 6L79.4634 18.3984L88 31H81.5L76.2515 23.0633L67 36.5H61L73.312 18.6182L61 0H67L76.4878 14.0058L82 6H88Z" fill="#9D36D0"/>
</svg>
