<svg width="438" height="438" viewBox="0 0 438 438" fill="none" xmlns="http://www.w3.org/2000/svg">
<path fill-rule="evenodd" clip-rule="evenodd" d="M271.407 25.2591C303.95 -7.2846 356.717 -7.2846 389.26 25.2591L412.83 48.8291C445.373 81.3727 445.373 134.137 412.83 166.68L141.77 437.737H33.6837C15.274 437.737 0.350008 422.813 0.350342 404.403V296.317L271.407 25.2591ZM342.12 72.3994L365.69 95.9697C372.197 102.478 372.197 113.031 365.69 119.54L330.333 154.895L283.193 107.755L318.547 72.3994C325.057 65.8907 335.61 65.8907 342.12 72.3994ZM283.193 202.037L114.157 371.07H67.017V323.93L236.053 154.895L283.193 202.037Z" fill="#EFDDDD"/>
</svg>
